solid OpenSCAD_Model
  facet normal 0 0 -1
    outer loop
      vertex 1.44208 -4.25 0
      vertex 1.39056 -4.27974 0
      vertex -0.470367 -4.47534 0
    endloop
  endfacet
  facet normal 0 0 -1
    outer loop
      vertex 1.44208 -4.25 0
      vertex 1.44208 4.25 0
      vertex 8.5 -4.25 0
    endloop
  endfacet
  facet normal 0 0 -1
    outer loop
      vertex 1.44208 4.25 0
      vertex 8.5 4.25 0
      vertex 8.5 -4.25 0
    endloop
  endfacet
  facet normal 0 0 -1
    outer loop
      vertex -2.25 3.89711 0
      vertex -0.470367 4.47534 0
      vertex 1.44208 4.25 0
    endloop
  endfacet
  facet normal 0 0 -1
    outer loop
      vertex 1.44208 4.25 0
      vertex -0.470367 4.47534 0
      vertex 1.39056 4.27974 0
    endloop
  endfacet
  facet normal 0 0 -1
    outer loop
      vertex -3.64056 2.64502 0
      vertex -2.25 3.89711 0
      vertex 1.44208 4.25 0
    endloop
  endfacet
  facet normal 0 0 -1
    outer loop
      vertex -4.40166 0.935593 0
      vertex -3.64056 2.64502 0
      vertex 1.44208 4.25 0
    endloop
  endfacet
  facet normal 0 0 -1
    outer loop
      vertex 1.44208 -4.25 0
      vertex -4.40166 0.935593 0
      vertex 1.44208 4.25 0
    endloop
  endfacet
  facet normal 0 0 -1
    outer loop
      vertex 1.44208 -4.25 0
      vertex -4.40166 -0.935593 0
      vertex -4.40166 0.935593 0
    endloop
  endfacet
  facet normal 0 0 -1
    outer loop
      vertex 1.44208 -4.25 0
      vertex -3.64056 -2.64502 0
      vertex -4.40166 -0.935593 0
    endloop
  endfacet
  facet normal 0 0 -1
    outer loop
      vertex 1.44208 -4.25 0
      vertex -2.25 -3.89711 0
      vertex -3.64056 -2.64502 0
    endloop
  endfacet
  facet normal -0 0 -1
    outer loop
      vertex 1.44208 -4.25 0
      vertex -0.470367 -4.47534 0
      vertex -2.25 -3.89711 0
    endloop
  endfacet
  facet normal 0 0 1
    outer loop
      vertex -0.470367 -4.47534 8
      vertex 1.39056 -4.27974 8
      vertex 1.44208 -4.25 8
    endloop
  endfacet
  facet normal 0 0 1
    outer loop
      vertex 8.5 -4.25 8
      vertex 1.44208 4.25 8
      vertex 1.44208 -4.25 8
    endloop
  endfacet
  facet normal 0 -0 1
    outer loop
      vertex 8.5 -4.25 8
      vertex 8.5 4.25 8
      vertex 1.44208 4.25 8
    endloop
  endfacet
  facet normal 0 0 1
    outer loop
      vertex 1.44208 4.25 8
      vertex -0.470367 4.47534 8
      vertex -2.25 3.89711 8
    endloop
  endfacet
  facet normal 0 0 1
    outer loop
      vertex 1.39056 4.27974 8
      vertex -0.470367 4.47534 8
      vertex 1.44208 4.25 8
    endloop
  endfacet
  facet normal 0 0 1
    outer loop
      vertex 1.44208 4.25 8
      vertex -2.25 3.89711 8
      vertex -3.64056 2.64502 8
    endloop
  endfacet
  facet normal 0 0 1
    outer loop
      vertex 1.44208 4.25 8
      vertex -3.64056 2.64502 8
      vertex -4.40166 0.935593 8
    endloop
  endfacet
  facet normal 0 0 1
    outer loop
      vertex 1.44208 4.25 8
      vertex -4.40166 0.935593 8
      vertex 1.44208 -4.25 8
    endloop
  endfacet
  facet normal 0 0 1
    outer loop
      vertex -4.40166 0.935593 8
      vertex -4.40166 -0.935593 8
      vertex 1.44208 -4.25 8
    endloop
  endfacet
  facet normal 0 0 1
    outer loop
      vertex -4.40166 -0.935593 8
      vertex -3.64056 -2.64502 8
      vertex 1.44208 -4.25 8
    endloop
  endfacet
  facet normal 0 0 1
    outer loop
      vertex -3.64056 -2.64502 8
      vertex -2.25 -3.89711 8
      vertex 1.44208 -4.25 8
    endloop
  endfacet
  facet normal 0 0 1
    outer loop
      vertex -2.25 -3.89711 8
      vertex -0.470367 -4.47534 8
      vertex 1.44208 -4.25 8
    endloop
  endfacet
  facet normal 0.499936 -0.866062 0
    outer loop
      vertex 1.44208 -4.25 0
      vertex 1.39056 -4.27974 8
      vertex 1.39056 -4.27974 0
    endloop
  endfacet
  facet normal 0.499936 -0.866062 0
    outer loop
      vertex 1.44208 -4.25 0
      vertex 1.44208 -4.25 8
      vertex 1.39056 -4.27974 8
    endloop
  endfacet
  facet normal 0 -1 0
    outer loop
      vertex 8.5 -4.25 0
      vertex 1.44208 -4.25 8
      vertex 1.44208 -4.25 0
    endloop
  endfacet
  facet normal 0 -1 0
    outer loop
      vertex 8.5 -4.25 0
      vertex 8.5 -4.25 8
      vertex 1.44208 -4.25 8
    endloop
  endfacet
  facet normal 1 0 0
    outer loop
      vertex 8.5 4.25 0
      vertex 8.5 -4.25 8
      vertex 8.5 -4.25 0
    endloop
  endfacet
  facet normal 1 0 -0
    outer loop
      vertex 8.5 4.25 0
      vertex 8.5 4.25 8
      vertex 8.5 -4.25 8
    endloop
  endfacet
  facet normal 0 1 0
    outer loop
      vertex 1.44208 4.25 0
      vertex 8.5 4.25 8
      vertex 8.5 4.25 0
    endloop
  endfacet
  facet normal 0 1 0
    outer loop
      vertex 1.44208 4.25 0
      vertex 1.44208 4.25 8
      vertex 8.5 4.25 8
    endloop
  endfacet
  facet normal 0.499936 0.866062 0
    outer loop
      vertex 1.39056 4.27974 0
      vertex 1.44208 4.25 8
      vertex 1.44208 4.25 0
    endloop
  endfacet
  facet normal 0.499936 0.866062 -0
    outer loop
      vertex 1.39056 4.27974 0
      vertex 1.39056 4.27974 8
      vertex 1.44208 4.25 8
    endloop
  endfacet
  facet normal 0.104533 0.994521 0
    outer loop
      vertex -0.470367 4.47534 0
      vertex 1.39056 4.27974 8
      vertex 1.39056 4.27974 0
    endloop
  endfacet
  facet normal 0.104533 0.994521 -0
    outer loop
      vertex -0.470367 4.47534 0
      vertex -0.470367 4.47534 8
      vertex 1.39056 4.27974 8
    endloop
  endfacet
  facet normal -0.309013 0.951058 0
    outer loop
      vertex -2.25 3.89711 0
      vertex -0.470367 4.47534 8
      vertex -0.470367 4.47534 0
    endloop
  endfacet
  facet normal -0.309013 0.951058 0
    outer loop
      vertex -2.25 3.89711 0
      vertex -2.25 3.89711 8
      vertex -0.470367 4.47534 8
    endloop
  endfacet
  facet normal -0.669138 0.743138 0
    outer loop
      vertex -3.64056 2.64502 0
      vertex -2.25 3.89711 8
      vertex -2.25 3.89711 0
    endloop
  endfacet
  facet normal -0.669138 0.743138 0
    outer loop
      vertex -3.64056 2.64502 0
      vertex -3.64056 2.64502 8
      vertex -2.25 3.89711 8
    endloop
  endfacet
  facet normal -0.913543 0.406743 0
    outer loop
      vertex -4.40166 0.935593 0
      vertex -3.64056 2.64502 8
      vertex -3.64056 2.64502 0
    endloop
  endfacet
  facet normal -0.913543 0.406743 0
    outer loop
      vertex -4.40166 0.935593 0
      vertex -4.40166 0.935593 8
      vertex -3.64056 2.64502 8
    endloop
  endfacet
  facet normal -1 0 0
    outer loop
      vertex -4.40166 -0.935593 0
      vertex -4.40166 0.935593 8
      vertex -4.40166 0.935593 0
    endloop
  endfacet
  facet normal -1 0 0
    outer loop
      vertex -4.40166 -0.935593 0
      vertex -4.40166 -0.935593 8
      vertex -4.40166 0.935593 8
    endloop
  endfacet
  facet normal -0.913543 -0.406743 0
    outer loop
      vertex -3.64056 -2.64502 0
      vertex -4.40166 -0.935593 8
      vertex -4.40166 -0.935593 0
    endloop
  endfacet
  facet normal -0.913543 -0.406743 0
    outer loop
      vertex -3.64056 -2.64502 0
      vertex -3.64056 -2.64502 8
      vertex -4.40166 -0.935593 8
    endloop
  endfacet
  facet normal -0.669138 -0.743138 0
    outer loop
      vertex -2.25 -3.89711 0
      vertex -3.64056 -2.64502 8
      vertex -3.64056 -2.64502 0
    endloop
  endfacet
  facet normal -0.669138 -0.743138 0
    outer loop
      vertex -2.25 -3.89711 0
      vertex -2.25 -3.89711 8
      vertex -3.64056 -2.64502 8
    endloop
  endfacet
  facet normal -0.309013 -0.951058 0
    outer loop
      vertex -0.470367 -4.47534 0
      vertex -2.25 -3.89711 8
      vertex -2.25 -3.89711 0
    endloop
  endfacet
  facet normal -0.309013 -0.951058 0
    outer loop
      vertex -0.470367 -4.47534 0
      vertex -0.470367 -4.47534 8
      vertex -2.25 -3.89711 8
    endloop
  endfacet
  facet normal 0.104533 -0.994521 0
    outer loop
      vertex 1.39056 -4.27974 0
      vertex -0.470367 -4.47534 8
      vertex -0.470367 -4.47534 0
    endloop
  endfacet
  facet normal 0.104533 -0.994521 0
    outer loop
      vertex 1.39056 -4.27974 0
      vertex 1.39056 -4.27974 8
      vertex -0.470367 -4.47534 8
    endloop
  endfacet
endsolid OpenSCAD_Model
