solid OpenSCAD_Model
  facet normal 0 0 -1
    outer loop
      vertex 0 2 0
      vertex -27.3 19.55 0
      vertex 46.8 19.55 0
    endloop
  endfacet
  facet normal 0 0 -1
    outer loop
      vertex 46.8 19.55 0
      vertex -27.3 91.7 0
      vertex 46.8 91.7 0
    endloop
  endfacet
  facet normal 0 0 -1
    outer loop
      vertex -27.3 19.55 0
      vertex -27.3 91.7 0
      vertex 46.8 19.55 0
    endloop
  endfacet
  facet normal 0 0 -1
    outer loop
      vertex 46.8 91.7 0
      vertex -27.3 91.7 0
      vertex 0 109.25 0
    endloop
  endfacet
  facet normal 0 0 1
    outer loop
      vertex 46.8 19.55 1.95
      vertex -27.3 19.55 1.95
      vertex 0 2 1.95
    endloop
  endfacet
  facet normal 0 0 1
    outer loop
      vertex 46.8 91.7 1.95
      vertex -27.3 91.7 1.95
      vertex 46.8 19.55 1.95
    endloop
  endfacet
  facet normal 0 0 1
    outer loop
      vertex 46.8 19.55 1.95
      vertex -27.3 91.7 1.95
      vertex -27.3 19.55 1.95
    endloop
  endfacet
  facet normal 0 0 1
    outer loop
      vertex 0 109.25 1.95
      vertex -27.3 91.7 1.95
      vertex 46.8 91.7 1.95
    endloop
  endfacet
  facet normal -0.540758 -0.841178 0
    outer loop
      vertex 0 2 0
      vertex -27.3 19.55 1.95
      vertex -27.3 19.55 0
    endloop
  endfacet
  facet normal -0.540758 -0.841178 0
    outer loop
      vertex 0 2 0
      vertex 0 2 1.95
      vertex -27.3 19.55 1.95
    endloop
  endfacet
  facet normal 0.351123 -0.936329 0
    outer loop
      vertex 46.8 19.55 0
      vertex 0 2 1.95
      vertex 0 2 0
    endloop
  endfacet
  facet normal 0.351123 -0.936329 0
    outer loop
      vertex 46.8 19.55 0
      vertex 46.8 19.55 1.95
      vertex 0 2 1.95
    endloop
  endfacet
  facet normal 1 0 0
    outer loop
      vertex 46.8 91.7 0
      vertex 46.8 19.55 1.95
      vertex 46.8 19.55 0
    endloop
  endfacet
  facet normal 1 0 -0
    outer loop
      vertex 46.8 91.7 0
      vertex 46.8 91.7 1.95
      vertex 46.8 19.55 1.95
    endloop
  endfacet
  facet normal 0.351123 0.936329 0
    outer loop
      vertex 0 109.25 0
      vertex 46.8 91.7 1.95
      vertex 46.8 91.7 0
    endloop
  endfacet
  facet normal 0.351123 0.936329 -0
    outer loop
      vertex 0 109.25 0
      vertex 0 109.25 1.95
      vertex 46.8 91.7 1.95
    endloop
  endfacet
  facet normal -0.540758 0.841178 0
    outer loop
      vertex -27.3 91.7 0
      vertex 0 109.25 1.95
      vertex 0 109.25 0
    endloop
  endfacet
  facet normal -0.540758 0.841178 0
    outer loop
      vertex -27.3 91.7 0
      vertex -27.3 91.7 1.95
      vertex 0 109.25 1.95
    endloop
  endfacet
  facet normal -1 0 0
    outer loop
      vertex -27.3 19.55 0
      vertex -27.3 91.7 1.95
      vertex -27.3 91.7 0
    endloop
  endfacet
  facet normal -1 0 0
    outer loop
      vertex -27.3 19.55 0
      vertex -27.3 19.55 1.95
      vertex -27.3 91.7 1.95
    endloop
  endfacet
endsolid OpenSCAD_Model
