solid OpenSCAD_Model
  facet normal -0 0 1
    outer loop
      vertex 0 13 2
      vertex 23 0 2
      vertex 23 13 2
    endloop
  endfacet
  facet normal 0 0 1
    outer loop
      vertex 23 0 2
      vertex 0 13 2
      vertex 0 0 2
    endloop
  endfacet
  facet normal 0 0 1
    outer loop
      vertex 37 27 2
      vertex 25 15 2
      vertex 37 -13 2
    endloop
  endfacet
  facet normal -0 0 1
    outer loop
      vertex -13 27 2
      vertex 25 15 2
      vertex 37 27 2
    endloop
  endfacet
  facet normal 0 0 1
    outer loop
      vertex -13 -13 2
      vertex -2 15 2
      vertex -13 27 2
    endloop
  endfacet
  facet normal 0 0 1
    outer loop
      vertex 25 15 2
      vertex -13 27 2
      vertex -2 15 2
    endloop
  endfacet
  facet normal -0 0 1
    outer loop
      vertex 25 -2 2
      vertex 37 -13 2
      vertex 25 15 2
    endloop
  endfacet
  facet normal 0 0 1
    outer loop
      vertex -13 -13 2
      vertex 25 -2 2
      vertex -2 -2 2
    endloop
  endfacet
  facet normal 0 0 1
    outer loop
      vertex 25 -2 2
      vertex -13 -13 2
      vertex 37 -13 2
    endloop
  endfacet
  facet normal 0 0 1
    outer loop
      vertex -2 15 2
      vertex -13 -13 2
      vertex -2 -2 2
    endloop
  endfacet
  facet normal 0 0 1
    outer loop
      vertex 0 3.4 17
      vertex -2 3.4 17
      vertex 0 0 17
    endloop
  endfacet
  facet normal 0 0 1
    outer loop
      vertex 25 15 17
      vertex 23 13 17
      vertex 25 -2 17
    endloop
  endfacet
  facet normal 0 0 1
    outer loop
      vertex 25 15 17
      vertex 0 13 17
      vertex 23 13 17
    endloop
  endfacet
  facet normal -0 0 1
    outer loop
      vertex -2 15 17
      vertex 0 13 17
      vertex 25 15 17
    endloop
  endfacet
  facet normal 0 0 1
    outer loop
      vertex -2 9.4 17
      vertex 0 13 17
      vertex -2 15 17
    endloop
  endfacet
  facet normal 0 0 1
    outer loop
      vertex 0 13 17
      vertex -2 9.4 17
      vertex 0 9.4 17
    endloop
  endfacet
  facet normal -0 0 1
    outer loop
      vertex 23 0 17
      vertex 25 -2 17
      vertex 23 13 17
    endloop
  endfacet
  facet normal -0 0 1
    outer loop
      vertex 0 0 17
      vertex 25 -2 17
      vertex 23 0 17
    endloop
  endfacet
  facet normal 0 0 1
    outer loop
      vertex 0 0 17
      vertex -2 -2 17
      vertex 25 -2 17
    endloop
  endfacet
  facet normal 0 0 1
    outer loop
      vertex -2 -2 17
      vertex 0 0 17
      vertex -2 3.4 17
    endloop
  endfacet
  facet normal 0 1 -0
    outer loop
      vertex 25 15 2
      vertex -2 15 17
      vertex 25 15 17
    endloop
  endfacet
  facet normal 0 1 0
    outer loop
      vertex -2 15 17
      vertex 25 15 2
      vertex -2 15 2
    endloop
  endfacet
  facet normal -1 0 0
    outer loop
      vertex -2 15 2
      vertex -2 9.4 5
      vertex -2 15 17
    endloop
  endfacet
  facet normal -1 0 0
    outer loop
      vertex -2 -2 2
      vertex -2 9.4 5
      vertex -2 15 2
    endloop
  endfacet
  facet normal -1 -0 0
    outer loop
      vertex -2 9.4 5
      vertex -2 -2 2
      vertex -2 3.4 5
    endloop
  endfacet
  facet normal -1 0 0
    outer loop
      vertex -2 -2 17
      vertex -2 3.4 5
      vertex -2 -2 2
    endloop
  endfacet
  facet normal -1 0 0
    outer loop
      vertex -2 3.4 5
      vertex -2 -2 17
      vertex -2 3.4 17
    endloop
  endfacet
  facet normal -1 -0 0
    outer loop
      vertex -2 15 17
      vertex -2 9.4 5
      vertex -2 9.4 17
    endloop
  endfacet
  facet normal 0 -1 0
    outer loop
      vertex -2 -2 2
      vertex 25 -2 17
      vertex -2 -2 17
    endloop
  endfacet
  facet normal 0 -1 -0
    outer loop
      vertex 25 -2 17
      vertex -2 -2 2
      vertex 25 -2 2
    endloop
  endfacet
  facet normal 1 -0 0
    outer loop
      vertex 25 -2 17
      vertex 25 15 2
      vertex 25 15 17
    endloop
  endfacet
  facet normal 1 0 0
    outer loop
      vertex 25 15 2
      vertex 25 -2 17
      vertex 25 -2 2
    endloop
  endfacet
  facet normal 1 0 0
    outer loop
      vertex 0 3.4 17
      vertex 0 0 17
      vertex 0 3.4 5
    endloop
  endfacet
  facet normal 1 0 0
    outer loop
      vertex 0 9.4 5
      vertex 0 13 17
      vertex 0 9.4 17
    endloop
  endfacet
  facet normal 1 0 0
    outer loop
      vertex 0 13 17
      vertex 0 9.4 5
      vertex 0 13 2
    endloop
  endfacet
  facet normal 1 0 0
    outer loop
      vertex 0 0 2
      vertex 0 9.4 5
      vertex 0 3.4 5
    endloop
  endfacet
  facet normal 1 0 0
    outer loop
      vertex 0 9.4 5
      vertex 0 0 2
      vertex 0 13 2
    endloop
  endfacet
  facet normal 1 0 0
    outer loop
      vertex 0 0 2
      vertex 0 3.4 5
      vertex 0 0 17
    endloop
  endfacet
  facet normal 0 -1 0
    outer loop
      vertex 0 13 2
      vertex 23 13 17
      vertex 0 13 17
    endloop
  endfacet
  facet normal 0 -1 -0
    outer loop
      vertex 23 13 17
      vertex 0 13 2
      vertex 23 13 2
    endloop
  endfacet
  facet normal -1 0 0
    outer loop
      vertex 23 0 2
      vertex 23 13 17
      vertex 23 13 2
    endloop
  endfacet
  facet normal -1 -0 0
    outer loop
      vertex 23 13 17
      vertex 23 0 2
      vertex 23 0 17
    endloop
  endfacet
  facet normal 0 1 -0
    outer loop
      vertex 23 0 2
      vertex 0 0 17
      vertex 23 0 17
    endloop
  endfacet
  facet normal 0 1 0
    outer loop
      vertex 0 0 17
      vertex 23 0 2
      vertex 0 0 2
    endloop
  endfacet
  facet normal -0 0 1
    outer loop
      vertex -2 9.4 5
      vertex 0 3.4 5
      vertex 0 9.4 5
    endloop
  endfacet
  facet normal 0 0 1
    outer loop
      vertex 0 3.4 5
      vertex -2 9.4 5
      vertex -2 3.4 5
    endloop
  endfacet
  facet normal 0 -1 0
    outer loop
      vertex -2 9.4 5
      vertex 0 9.4 17
      vertex -2 9.4 17
    endloop
  endfacet
  facet normal 0 -1 -0
    outer loop
      vertex 0 9.4 17
      vertex -2 9.4 5
      vertex 0 9.4 5
    endloop
  endfacet
  facet normal 0 1 -0
    outer loop
      vertex 0 3.4 5
      vertex -2 3.4 17
      vertex 0 3.4 17
    endloop
  endfacet
  facet normal 0 1 0
    outer loop
      vertex -2 3.4 17
      vertex 0 3.4 5
      vertex -2 3.4 5
    endloop
  endfacet
  facet normal 0 0 -1
    outer loop
      vertex -13 -13 0
      vertex 37 27 0
      vertex 37 -13 0
    endloop
  endfacet
  facet normal -0 0 -1
    outer loop
      vertex 37 27 0
      vertex -13 -13 0
      vertex -13 27 0
    endloop
  endfacet
  facet normal -1 0 0
    outer loop
      vertex -13 -13 0
      vertex -13 27 2
      vertex -13 27 0
    endloop
  endfacet
  facet normal -1 -0 0
    outer loop
      vertex -13 27 2
      vertex -13 -13 0
      vertex -13 -13 2
    endloop
  endfacet
  facet normal 0 1 -0
    outer loop
      vertex 37 27 0
      vertex -13 27 2
      vertex 37 27 2
    endloop
  endfacet
  facet normal 0 1 0
    outer loop
      vertex -13 27 2
      vertex 37 27 0
      vertex -13 27 0
    endloop
  endfacet
  facet normal 1 -0 0
    outer loop
      vertex 37 -13 2
      vertex 37 27 0
      vertex 37 27 2
    endloop
  endfacet
  facet normal 1 0 0
    outer loop
      vertex 37 27 0
      vertex 37 -13 2
      vertex 37 -13 0
    endloop
  endfacet
  facet normal 0 -1 0
    outer loop
      vertex -13 -13 0
      vertex 37 -13 2
      vertex -13 -13 2
    endloop
  endfacet
  facet normal 0 -1 -0
    outer loop
      vertex 37 -13 2
      vertex -13 -13 0
      vertex 37 -13 0
    endloop
  endfacet
endsolid OpenSCAD_Model
